<svg width="512" height="512" xmlns="http://www.w3.org/2000/svg">
  <path fill="#3f51b5" id="svg_1" d="m448.9,64l-32.9,0l0,40.7c0,22.5 -23.2,39.3 -47.2,39.3s-48.8,-16.8 -48.8,-39.3l0,-40.7l-128,0l0,40.7c0,22.5 -24,39.3 -48,39.3s-48,-16.8 -48,-39.3l0,-40.7l-32.9,0c-17.2,0 -31.1,13.3 -31.1,29.4l0,357.5c0,16.1 13.9,29.1 31.1,29.1l385.8,0c17.2,0 31.1,-13 31.1,-29.2l0,-357.4c0,-16.1 -13.9,-29.4 -31.1,-29.4zm-16.9,355.9c0,6.6 -5.8,12 -12.8,12l-326.5,0.1c-7,-0.3 -12.7,-5.6 -12.7,-12.2l0,-231.5c0,-6.9 5.9,-12.3 13.3,-12.3l325.5,0c7.3,0 13.2,5.3 13.2,12.1l0,231.8z"/>
  <path fill="#ffffff" id="svg_2" d="m176,96c0,17.7 -14.3,32 -32,32l0,0c-17.7,0 -32,-14.3 -32,-32l0,-32c0,-17.7 14.3,-32 32,-32l0,0c17.7,0 32,14.3 32,32l0,32z"/>
  <path fill="#3f51b5" id="svg_3" d="m400,96c0,17.7 -14.3,32 -32,32l0,0c-17.7,0 -32,-14.3 -32,-32l0,-32c0,-17.7 14.3,-32 32,-32l0,0c17.7,0 32,14.3 32,32l0,32z"/>
</svg>